<mxfile host="app.diagrams.net" modified="2020-08-01T15:08:21.175Z" agent="5.0 (Macintosh; Intel Mac OS X 10_15_5) AppleWebKit/537.36 (KHTML, like Gecko) Chrome/84.0.4147.89 Safari/537.36" etag="E-8RZw7M4inHOvap8A_F" version="13.5.5" type="github">
  <diagram id="nSxgDOsdCPhVr4lf49zR" name="Page-1">
    <mxGraphModel dx="746" dy="971" grid="1" gridSize="10" guides="1" tooltips="1" connect="1" arrows="1" fold="1" page="1" pageScale="1" pageWidth="827" pageHeight="1169" math="0" shadow="0">
      <root>
        <mxCell id="0" />
        <mxCell id="1" parent="0" />
        <mxCell id="SZ_MhEa1Xll06j9Zjt3N-5" style="edgeStyle=none;rounded=0;orthogonalLoop=1;jettySize=auto;html=1;entryX=1;entryY=0;entryDx=0;entryDy=0;" edge="1" parent="1" source="SZ_MhEa1Xll06j9Zjt3N-1" target="SZ_MhEa1Xll06j9Zjt3N-4">
          <mxGeometry relative="1" as="geometry" />
        </mxCell>
        <mxCell id="SZ_MhEa1Xll06j9Zjt3N-7" style="edgeStyle=none;rounded=0;orthogonalLoop=1;jettySize=auto;html=1;" edge="1" parent="1" source="SZ_MhEa1Xll06j9Zjt3N-1" target="SZ_MhEa1Xll06j9Zjt3N-6">
          <mxGeometry relative="1" as="geometry" />
        </mxCell>
        <mxCell id="SZ_MhEa1Xll06j9Zjt3N-1" value="27" style="ellipse;whiteSpace=wrap;html=1;aspect=fixed;gradientColor=#b3b3b3;fillColor=#f5f5f5;strokeColor=#666666;" vertex="1" parent="1">
          <mxGeometry x="374" y="100" width="50" height="50" as="geometry" />
        </mxCell>
        <mxCell id="SZ_MhEa1Xll06j9Zjt3N-10" style="edgeStyle=none;rounded=0;orthogonalLoop=1;jettySize=auto;html=1;entryX=1;entryY=0;entryDx=0;entryDy=0;" edge="1" parent="1" source="SZ_MhEa1Xll06j9Zjt3N-4" target="SZ_MhEa1Xll06j9Zjt3N-8">
          <mxGeometry relative="1" as="geometry" />
        </mxCell>
        <mxCell id="SZ_MhEa1Xll06j9Zjt3N-11" style="edgeStyle=none;rounded=0;orthogonalLoop=1;jettySize=auto;html=1;" edge="1" parent="1" source="SZ_MhEa1Xll06j9Zjt3N-4" target="SZ_MhEa1Xll06j9Zjt3N-9">
          <mxGeometry relative="1" as="geometry" />
        </mxCell>
        <mxCell id="SZ_MhEa1Xll06j9Zjt3N-4" value="19" style="ellipse;whiteSpace=wrap;html=1;aspect=fixed;gradientColor=#ea6b66;fillColor=#f8cecc;strokeColor=#b85450;" vertex="1" parent="1">
          <mxGeometry x="280" y="170" width="50" height="50" as="geometry" />
        </mxCell>
        <mxCell id="SZ_MhEa1Xll06j9Zjt3N-16" style="edgeStyle=none;rounded=0;orthogonalLoop=1;jettySize=auto;html=1;" edge="1" parent="1" source="SZ_MhEa1Xll06j9Zjt3N-6" target="SZ_MhEa1Xll06j9Zjt3N-14">
          <mxGeometry relative="1" as="geometry" />
        </mxCell>
        <mxCell id="SZ_MhEa1Xll06j9Zjt3N-17" style="edgeStyle=none;rounded=0;orthogonalLoop=1;jettySize=auto;html=1;entryX=0.36;entryY=0.02;entryDx=0;entryDy=0;entryPerimeter=0;" edge="1" parent="1" source="SZ_MhEa1Xll06j9Zjt3N-6" target="SZ_MhEa1Xll06j9Zjt3N-15">
          <mxGeometry relative="1" as="geometry" />
        </mxCell>
        <mxCell id="SZ_MhEa1Xll06j9Zjt3N-6" value="34" style="ellipse;whiteSpace=wrap;html=1;aspect=fixed;gradientColor=#ea6b66;fillColor=#f8cecc;strokeColor=#b85450;" vertex="1" parent="1">
          <mxGeometry x="480" y="170" width="50" height="50" as="geometry" />
        </mxCell>
        <mxCell id="SZ_MhEa1Xll06j9Zjt3N-13" style="edgeStyle=none;rounded=0;orthogonalLoop=1;jettySize=auto;html=1;entryX=0.74;entryY=0.06;entryDx=0;entryDy=0;entryPerimeter=0;" edge="1" parent="1" source="SZ_MhEa1Xll06j9Zjt3N-8" target="SZ_MhEa1Xll06j9Zjt3N-12">
          <mxGeometry relative="1" as="geometry" />
        </mxCell>
        <mxCell id="SZ_MhEa1Xll06j9Zjt3N-27" style="edgeStyle=none;rounded=0;orthogonalLoop=1;jettySize=auto;html=1;" edge="1" parent="1" source="SZ_MhEa1Xll06j9Zjt3N-8" target="SZ_MhEa1Xll06j9Zjt3N-26">
          <mxGeometry relative="1" as="geometry" />
        </mxCell>
        <mxCell id="SZ_MhEa1Xll06j9Zjt3N-8" value="7" style="ellipse;whiteSpace=wrap;html=1;aspect=fixed;gradientColor=#b3b3b3;fillColor=#f5f5f5;strokeColor=#666666;" vertex="1" parent="1">
          <mxGeometry x="190" y="250" width="50" height="50" as="geometry" />
        </mxCell>
        <mxCell id="SZ_MhEa1Xll06j9Zjt3N-29" style="edgeStyle=none;rounded=0;orthogonalLoop=1;jettySize=auto;html=1;entryX=0.5;entryY=0;entryDx=0;entryDy=0;" edge="1" parent="1" source="SZ_MhEa1Xll06j9Zjt3N-9" target="SZ_MhEa1Xll06j9Zjt3N-28">
          <mxGeometry relative="1" as="geometry" />
        </mxCell>
        <mxCell id="SZ_MhEa1Xll06j9Zjt3N-33" style="edgeStyle=none;rounded=0;orthogonalLoop=1;jettySize=auto;html=1;entryX=0.5;entryY=0;entryDx=0;entryDy=0;" edge="1" parent="1" source="SZ_MhEa1Xll06j9Zjt3N-9" target="SZ_MhEa1Xll06j9Zjt3N-32">
          <mxGeometry relative="1" as="geometry" />
        </mxCell>
        <mxCell id="SZ_MhEa1Xll06j9Zjt3N-9" value="25" style="ellipse;whiteSpace=wrap;html=1;aspect=fixed;gradientColor=#b3b3b3;fillColor=#f5f5f5;strokeColor=#666666;" vertex="1" parent="1">
          <mxGeometry x="320" y="260" width="50" height="50" as="geometry" />
        </mxCell>
        <mxCell id="SZ_MhEa1Xll06j9Zjt3N-22" style="edgeStyle=none;rounded=0;orthogonalLoop=1;jettySize=auto;html=1;entryX=0.5;entryY=0;entryDx=0;entryDy=0;" edge="1" parent="1" source="SZ_MhEa1Xll06j9Zjt3N-12" target="SZ_MhEa1Xll06j9Zjt3N-23">
          <mxGeometry relative="1" as="geometry">
            <mxPoint x="180" y="440" as="targetPoint" />
          </mxGeometry>
        </mxCell>
        <mxCell id="SZ_MhEa1Xll06j9Zjt3N-25" style="edgeStyle=none;rounded=0;orthogonalLoop=1;jettySize=auto;html=1;entryX=0.5;entryY=0;entryDx=0;entryDy=0;" edge="1" parent="1" source="SZ_MhEa1Xll06j9Zjt3N-12" target="SZ_MhEa1Xll06j9Zjt3N-24">
          <mxGeometry relative="1" as="geometry" />
        </mxCell>
        <mxCell id="SZ_MhEa1Xll06j9Zjt3N-49" style="edgeStyle=none;rounded=0;orthogonalLoop=1;jettySize=auto;html=1;" edge="1" parent="1" source="SZ_MhEa1Xll06j9Zjt3N-12">
          <mxGeometry relative="1" as="geometry">
            <mxPoint x="360" y="510" as="targetPoint" />
          </mxGeometry>
        </mxCell>
        <mxCell id="SZ_MhEa1Xll06j9Zjt3N-12" value="2" style="ellipse;whiteSpace=wrap;html=1;aspect=fixed;gradientColor=#ea6b66;fillColor=#f8cecc;strokeColor=#b85450;" vertex="1" parent="1">
          <mxGeometry x="150" y="320" width="50" height="50" as="geometry" />
        </mxCell>
        <mxCell id="SZ_MhEa1Xll06j9Zjt3N-37" style="edgeStyle=none;rounded=0;orthogonalLoop=1;jettySize=auto;html=1;entryX=0.5;entryY=0;entryDx=0;entryDy=0;" edge="1" parent="1" source="SZ_MhEa1Xll06j9Zjt3N-14" target="SZ_MhEa1Xll06j9Zjt3N-35">
          <mxGeometry relative="1" as="geometry" />
        </mxCell>
        <mxCell id="SZ_MhEa1Xll06j9Zjt3N-38" style="edgeStyle=none;rounded=0;orthogonalLoop=1;jettySize=auto;html=1;entryX=0.5;entryY=0;entryDx=0;entryDy=0;" edge="1" parent="1" source="SZ_MhEa1Xll06j9Zjt3N-14" target="SZ_MhEa1Xll06j9Zjt3N-36">
          <mxGeometry relative="1" as="geometry" />
        </mxCell>
        <mxCell id="SZ_MhEa1Xll06j9Zjt3N-14" value="31" style="ellipse;whiteSpace=wrap;html=1;aspect=fixed;gradientColor=#b3b3b3;fillColor=#f5f5f5;strokeColor=#666666;" vertex="1" parent="1">
          <mxGeometry x="430" y="260" width="50" height="50" as="geometry" />
        </mxCell>
        <mxCell id="SZ_MhEa1Xll06j9Zjt3N-20" style="edgeStyle=none;rounded=0;orthogonalLoop=1;jettySize=auto;html=1;" edge="1" parent="1" source="SZ_MhEa1Xll06j9Zjt3N-15" target="SZ_MhEa1Xll06j9Zjt3N-18">
          <mxGeometry relative="1" as="geometry" />
        </mxCell>
        <mxCell id="SZ_MhEa1Xll06j9Zjt3N-21" style="edgeStyle=none;rounded=0;orthogonalLoop=1;jettySize=auto;html=1;entryX=0.5;entryY=0;entryDx=0;entryDy=0;" edge="1" parent="1" source="SZ_MhEa1Xll06j9Zjt3N-15" target="SZ_MhEa1Xll06j9Zjt3N-19">
          <mxGeometry relative="1" as="geometry" />
        </mxCell>
        <mxCell id="SZ_MhEa1Xll06j9Zjt3N-15" value="65" style="ellipse;whiteSpace=wrap;html=1;aspect=fixed;gradientColor=#b3b3b3;fillColor=#f5f5f5;strokeColor=#666666;" vertex="1" parent="1">
          <mxGeometry x="530" y="260" width="50" height="50" as="geometry" />
        </mxCell>
        <mxCell id="SZ_MhEa1Xll06j9Zjt3N-43" style="edgeStyle=none;rounded=0;orthogonalLoop=1;jettySize=auto;html=1;entryX=0.5;entryY=0;entryDx=0;entryDy=0;" edge="1" parent="1" source="SZ_MhEa1Xll06j9Zjt3N-18" target="SZ_MhEa1Xll06j9Zjt3N-41">
          <mxGeometry relative="1" as="geometry" />
        </mxCell>
        <mxCell id="SZ_MhEa1Xll06j9Zjt3N-44" style="edgeStyle=none;rounded=0;orthogonalLoop=1;jettySize=auto;html=1;entryX=0.5;entryY=0;entryDx=0;entryDy=0;" edge="1" parent="1" source="SZ_MhEa1Xll06j9Zjt3N-18" target="SZ_MhEa1Xll06j9Zjt3N-42">
          <mxGeometry relative="1" as="geometry" />
        </mxCell>
        <mxCell id="SZ_MhEa1Xll06j9Zjt3N-18" value="49" style="ellipse;whiteSpace=wrap;html=1;aspect=fixed;gradientColor=#ea6b66;fillColor=#f8cecc;strokeColor=#b85450;" vertex="1" parent="1">
          <mxGeometry x="500" y="350" width="50" height="50" as="geometry" />
        </mxCell>
        <mxCell id="SZ_MhEa1Xll06j9Zjt3N-47" style="edgeStyle=none;rounded=0;orthogonalLoop=1;jettySize=auto;html=1;entryX=0.5;entryY=0;entryDx=0;entryDy=0;" edge="1" parent="1" source="SZ_MhEa1Xll06j9Zjt3N-19" target="SZ_MhEa1Xll06j9Zjt3N-45">
          <mxGeometry relative="1" as="geometry" />
        </mxCell>
        <mxCell id="SZ_MhEa1Xll06j9Zjt3N-48" style="edgeStyle=none;rounded=0;orthogonalLoop=1;jettySize=auto;html=1;entryX=0.5;entryY=0;entryDx=0;entryDy=0;" edge="1" parent="1" source="SZ_MhEa1Xll06j9Zjt3N-19" target="SZ_MhEa1Xll06j9Zjt3N-46">
          <mxGeometry relative="1" as="geometry" />
        </mxCell>
        <mxCell id="SZ_MhEa1Xll06j9Zjt3N-19" value="98" style="ellipse;whiteSpace=wrap;html=1;aspect=fixed;gradientColor=#ea6b66;fillColor=#f8cecc;strokeColor=#b85450;" vertex="1" parent="1">
          <mxGeometry x="570" y="350" width="50" height="50" as="geometry" />
        </mxCell>
        <mxCell id="SZ_MhEa1Xll06j9Zjt3N-23" value="NIL" style="rounded=0;whiteSpace=wrap;html=1;" vertex="1" parent="1">
          <mxGeometry x="130" y="400" width="30" height="30" as="geometry" />
        </mxCell>
        <mxCell id="SZ_MhEa1Xll06j9Zjt3N-24" value="NIL" style="rounded=0;whiteSpace=wrap;html=1;" vertex="1" parent="1">
          <mxGeometry x="190" y="400" width="30" height="30" as="geometry" />
        </mxCell>
        <mxCell id="SZ_MhEa1Xll06j9Zjt3N-26" value="NIL" style="rounded=0;whiteSpace=wrap;html=1;" vertex="1" parent="1">
          <mxGeometry x="240" y="330" width="30" height="30" as="geometry" />
        </mxCell>
        <mxCell id="SZ_MhEa1Xll06j9Zjt3N-28" value="NIL" style="rounded=0;whiteSpace=wrap;html=1;" vertex="1" parent="1">
          <mxGeometry x="310" y="330" width="30" height="30" as="geometry" />
        </mxCell>
        <mxCell id="SZ_MhEa1Xll06j9Zjt3N-31" style="edgeStyle=none;rounded=0;orthogonalLoop=1;jettySize=auto;html=1;exitX=0;exitY=0.5;exitDx=0;exitDy=0;" edge="1" parent="1" source="SZ_MhEa1Xll06j9Zjt3N-24" target="SZ_MhEa1Xll06j9Zjt3N-24">
          <mxGeometry relative="1" as="geometry" />
        </mxCell>
        <mxCell id="SZ_MhEa1Xll06j9Zjt3N-32" value="NIL" style="rounded=0;whiteSpace=wrap;html=1;" vertex="1" parent="1">
          <mxGeometry x="350" y="330" width="30" height="30" as="geometry" />
        </mxCell>
        <mxCell id="SZ_MhEa1Xll06j9Zjt3N-35" value="NIL" style="rounded=0;whiteSpace=wrap;html=1;" vertex="1" parent="1">
          <mxGeometry x="424" y="330" width="30" height="30" as="geometry" />
        </mxCell>
        <mxCell id="SZ_MhEa1Xll06j9Zjt3N-36" value="NIL" style="rounded=0;whiteSpace=wrap;html=1;" vertex="1" parent="1">
          <mxGeometry x="464" y="330" width="30" height="30" as="geometry" />
        </mxCell>
        <mxCell id="SZ_MhEa1Xll06j9Zjt3N-41" value="NIL" style="rounded=0;whiteSpace=wrap;html=1;" vertex="1" parent="1">
          <mxGeometry x="490" y="430" width="30" height="30" as="geometry" />
        </mxCell>
        <mxCell id="SZ_MhEa1Xll06j9Zjt3N-42" value="NIL" style="rounded=0;whiteSpace=wrap;html=1;" vertex="1" parent="1">
          <mxGeometry x="530" y="430" width="30" height="30" as="geometry" />
        </mxCell>
        <mxCell id="SZ_MhEa1Xll06j9Zjt3N-45" value="NIL" style="rounded=0;whiteSpace=wrap;html=1;" vertex="1" parent="1">
          <mxGeometry x="560" y="430" width="30" height="30" as="geometry" />
        </mxCell>
        <mxCell id="SZ_MhEa1Xll06j9Zjt3N-46" value="NIL" style="rounded=0;whiteSpace=wrap;html=1;" vertex="1" parent="1">
          <mxGeometry x="600" y="430" width="30" height="30" as="geometry" />
        </mxCell>
        <mxCell id="SZ_MhEa1Xll06j9Zjt3N-50" value="&lt;font style=&quot;font-size: 18px&quot;&gt;min_vruntime&lt;/font&gt;" style="text;html=1;align=center;verticalAlign=middle;resizable=0;points=[];autosize=1;" vertex="1" parent="1">
          <mxGeometry x="334" y="510" width="120" height="20" as="geometry" />
        </mxCell>
      </root>
    </mxGraphModel>
  </diagram>
</mxfile>
